<?xml version="1.0" encoding="utf-8" standalone="no"?>
<!DOCTYPE svg PUBLIC "-//W3C//DTD SVG 1.1//EN"
  "http://www.w3.org/Graphics/SVG/1.1/DTD/svg11.dtd">
<svg width="800px" height="600px" version="1.1" xmlns="http://www.w3.org/2000/svg">
<desc>Figure 1</desc>
<script>
function tooltip(x,y,string,size,face) {
    var txtElem = document.createElementNS("http://www.w3.org/2000/svg", "text");
    txtElem.setAttributeNS(null,"id","tooltip");
    txtElem.setAttributeNS(null,"x",x);
    txtElem.setAttributeNS(null,"y",y);
    txtElem.setAttributeNS(null,"font-size",size);
    txtElem.setAttributeNS(null,"font-family",face);

    txtElem.appendChild(document.createTextNode(string))
    document.documentElement.appendChild(txtElem);
}
function remove_tooltip() {
    var txtElem = document.getElementById("tooltip");
    document.documentElement.removeChild(txtElem);
}
</script>
<rect x="80" y="60" width="640" height="480" fill="#c8c8c8" fill-opacity="1.000000" stroke="#c8c8c8" stroke-opacity="1.000000" stroke-width="3.000000">
</rect>
<text x="94.6336" y="545" font-family="Roboto" font-size="18.000000" text-anchor="middle" alignment-baseline="hanging" fill="#000000" fill-opacity="1.000000">0</text>
<text x="201.817" y="545" font-family="Roboto" font-size="18.000000" text-anchor="middle" alignment-baseline="hanging" fill="#000000" fill-opacity="1.000000">180</text>
<text x="309.001" y="545" font-family="Roboto" font-size="18.000000" text-anchor="middle" alignment-baseline="hanging" fill="#000000" fill-opacity="1.000000">360</text>
<text x="416.185" y="545" font-family="Roboto" font-size="18.000000" text-anchor="middle" alignment-baseline="hanging" fill="#000000" fill-opacity="1.000000">540</text>
<text x="523.369" y="545" font-family="Roboto" font-size="18.000000" text-anchor="middle" alignment-baseline="hanging" fill="#000000" fill-opacity="1.000000">720</text>
<text x="630.553" y="545" font-family="Roboto" font-size="18.000000" text-anchor="middle" alignment-baseline="hanging" fill="#000000" fill-opacity="1.000000">900</text>
<text x="75" y="528.578" font-family="Roboto" font-size="18.000000" text-anchor="end" alignment-baseline="middle" fill="#000000" fill-opacity="1.000000">0</text>
<text x="75" y="454.794" font-family="Roboto" font-size="18.000000" text-anchor="end" alignment-baseline="middle" fill="#000000" fill-opacity="1.000000">0.0001</text>
<text x="75" y="381.01" font-family="Roboto" font-size="18.000000" text-anchor="end" alignment-baseline="middle" fill="#000000" fill-opacity="1.000000">0.0002</text>
<text x="75" y="307.226" font-family="Roboto" font-size="18.000000" text-anchor="end" alignment-baseline="middle" fill="#000000" fill-opacity="1.000000">0.0003</text>
<text x="75" y="233.442" font-family="Roboto" font-size="18.000000" text-anchor="end" alignment-baseline="middle" fill="#000000" fill-opacity="1.000000">0.0004</text>
<text x="75" y="159.658" font-family="Roboto" font-size="18.000000" text-anchor="end" alignment-baseline="middle" fill="#000000" fill-opacity="1.000000">0.0005</text>
<text x="75" y="85.8739" font-family="Roboto" font-size="18.000000" text-anchor="end" alignment-baseline="middle" fill="#000000" fill-opacity="1.000000">0.0006</text>
<path d=" M 94.633553 545.000000 L 94.633553 540.000000 M 201.817352 545.000000 L 201.817352 540.000000 M 309.001160 545.000000 L 309.001160 540.000000 M 416.184937 545.000000 L 416.184937 540.000000 M 523.368774 545.000000 L 523.368774 540.000000 M 630.552551 545.000000 L 630.552551 540.000000 M 75.000000 528.578247 L 80.000000 528.578247 M 75.000000 454.794189 L 80.000000 454.794189 M 75.000000 381.010132 L 80.000000 381.010132 M 75.000000 307.226044 L 80.000000 307.226044 M 75.000000 233.441986 L 80.000000 233.441986 M 75.000000 159.657928 L 80.000000 159.657928 M 75.000000 85.873856 L 80.000000 85.873856" stroke="#000000" stroke-opacity="1.000000" stroke-width="1.500000" fill-opacity="0"/>
<path d=" M 94.633553 60.000000 L 94.633553 540.000000 M 201.817352 60.000000 L 201.817352 540.000000 M 309.001160 60.000000 L 309.001160 540.000000 M 416.184937 60.000000 L 416.184937 540.000000 M 523.368774 60.000000 L 523.368774 540.000000 M 630.552551 60.000000 L 630.552551 540.000000 M 80.000000 528.578247 L 720.000000 528.578247 M 80.000000 454.794189 L 720.000000 454.794189 M 80.000000 381.010132 L 720.000000 381.010132 M 80.000000 307.226044 L 720.000000 307.226044 M 80.000000 233.441986 L 720.000000 233.441986 M 80.000000 159.657928 L 720.000000 159.657928 M 80.000000 85.873856 L 720.000000 85.873856" stroke="#ffffff" stroke-opacity="1.000000" stroke-width="1.500000" fill-opacity="0"/>
<text x="400" y="564" font-family="Roboto" font-size="18.000000" text-anchor="middle" alignment-baseline="hanging" fill="#000000" fill-opacity="1.000000">packet size</text>
<text x="0" y="0" font-family="Roboto" font-size="18.000000" text-anchor="middle" alignment-baseline="baseline" fill="#000000" fill-opacity="1.000000" transform="matrix(-4.37114e-08 -1 1 -4.37114e-08 48 300)">delay</text>
<path d=" M 95.229019 160.949127 L 95.824486 528.578247 L 96.419945 528.578247 L 97.015411 528.578247 L 97.610878 528.578247 L 98.206345 528.578247 L 98.801811 528.578247 L 99.397278 528.578247 L 99.992737 528.578247 L 100.588203 528.578247 L 101.183670 528.578247 L 101.779137 528.578247 L 102.374603 528.578247 L 102.970070 528.578247 L 103.565536 528.578247 L 104.160995 160.617096 L 104.756462 163.457809 L 105.351929 528.578247 L 105.947395 475.711945 L 106.542862 128.779297 L 107.138329 157.259949 L 107.733795 160.949127 L 108.329254 528.578247 L 108.924721 528.578247 L 109.520187 528.578247 L 110.115654 498.363647 L 110.711121 528.578247 L 111.306587 528.578247 L 111.902054 160.026825 L 112.497513 528.578247 L 113.092979 528.578247 L 113.688446 159.805466 L 114.283913 528.578247 L 114.879379 528.578247 L 115.474846 528.578247 L 116.070312 528.578247 L 116.665771 528.578247 L 117.261238 528.578247 L 117.856705 159.215195 L 118.452171 528.578247 L 119.047638 528.578247 L 119.643105 528.578247 L 120.238571 528.578247 L 120.834038 146.635040 L 121.429497 528.578247 L 122.024963 528.578247 L 122.620430 159.768585 L 123.215897 495.080261 L 123.811363 528.578247 L 124.406830 156.817230 L 125.002296 161.723877 L 125.597755 160.211288 L 126.193222 167.405243 L 126.788689 528.578247 L 127.384155 124.352264 L 127.979622 162.203476 L 128.575089 528.578247 L 129.170547 528.578247 L 129.766022 528.578247 L 130.361481 528.578247 L 130.956955 528.578247 L 131.552414 528.578247 L 132.147873 528.578247 L 132.743347 157.333725 L 133.338806 528.578247 L 133.934280 528.578247 L 134.529739 528.578247 L 135.125214 528.578247 L 135.720673 528.578247 L 136.316132 161.133591 L 136.911606 528.578247 L 137.507065 528.578247 L 138.102539 160.727783 L 138.697998 528.578247 L 139.293472 528.578247 L 139.888931 160.653992 L 140.484390 528.578247 L 141.079865 528.578247 L 141.675323 130.328766 L 142.270798 528.578247 L 142.866257 146.487473 L 143.461731 528.578247 L 144.057190 528.578247 L 144.652649 528.578247 L 145.248123 160.764679 L 145.843582 528.578247 L 146.439056 528.578247 L 147.034515 528.578247 L 147.629990 528.578247 L 148.225449 528.578247 L 148.820908 160.063721 L 149.416382 528.578247 L 150.011841 71.707321 L 150.607315 160.912247 L 151.202774 479.917664 L 151.798248 528.578247 L 152.393707 528.578247 L 152.989166 528.578247 L 153.584641 160.653992 L 154.180099 528.578247 L 154.775574 528.578247 L 155.371033 160.321960 L 155.966507 528.578247 L 156.561966 528.578247 L 157.157440 528.578247 L 157.752899 528.578247 L 158.348373 528.578247 L 158.943832 528.578247 L 159.539291 528.578247 L 160.134766 161.502518 L 160.730225 528.578247 L 161.325699 528.578247 L 161.921158 528.578247 L 162.516632 528.578247 L 163.112091 528.578247 L 163.707550 528.578247 L 164.303024 528.578247 L 164.898483 528.578247 L 165.493958 528.578247 L 166.089417 528.578247 L 166.684891 528.578247 L 167.280350 138.777023 L 167.875809 528.578247 L 168.471283 528.578247 L 169.066742 167.626602 L 169.662216 528.578247 L 170.257675 528.578247 L 170.853149 528.578247 L 171.448608 528.578247 L 172.044083 528.578247 L 172.639542 159.473434 L 173.235001 528.578247 L 173.830475 528.578247 L 174.425934 160.580215 L 175.021408 528.578247 L 175.616867 528.578247 L 176.212341 165.302383 L 176.807800 528.578247 L 177.403259 528.578247 L 177.998734 528.578247 L 178.594193 528.578247 L 179.189667 528.578247 L 179.785126 161.170486 L 180.380600 528.578247 L 180.976059 528.578247 L 181.571518 528.578247 L 182.166992 349.467438 L 182.762451 528.578247 L 183.357925 158.735641 L 183.953384 528.578247 L 184.548859 528.578247 L 185.144318 160.580215 L 185.739777 161.170486 L 186.335251 528.578247 L 186.930710 528.578247 L 187.526184 528.578247 L 188.121643 120.257217 L 188.717117 528.578247 L 189.312576 528.578247 L 189.908035 528.578247 L 190.503510 528.578247 L 191.098969 159.989929 L 191.694443 462.430847 L 192.289902 528.578247 L 192.885376 528.578247 L 193.480835 528.578247 L 194.076294 528.578247 L 194.671768 161.096710 L 195.267227 528.578247 L 195.862701 528.578247 L 196.458160 528.578247 L 197.053635 528.578247 L 197.649094 528.578247 L 198.244553 167.552811 L 198.840027 528.578247 L 199.435486 528.578247 L 200.030960 528.578247 L 200.626419 528.578247 L 201.221893 528.578247 L 201.817352 528.578247 L 202.412811 528.578247 L 203.008286 122.286293 L 203.603745 528.578247 L 204.199219 528.578247 L 204.794678 160.100616 L 205.390152 160.285065 L 205.985611 528.578247 L 206.581070 528.578247 L 207.176544 528.578247 L 207.772003 528.578247 L 208.367477 528.578247 L 208.962936 160.506424 L 209.558411 528.578247 L 210.153870 472.207214 L 210.749329 160.543320 L 211.344803 528.578247 L 211.940262 528.578247 L 212.535736 528.578247 L 213.131195 528.578247 L 213.726669 528.578247 L 214.322128 159.989929 L 214.917587 159.473434 L 215.513062 528.578247 L 216.108521 528.578247 L 216.703995 218.722061 L 217.299454 528.578247 L 217.894928 528.578247 L 218.490387 158.956985 L 219.085846 144.089478 L 219.681320 528.578247 L 220.276779 528.578247 L 220.872253 163.937408 L 221.467712 162.830643 L 222.063187 528.578247 L 222.658646 160.285065 L 223.254105 528.578247 L 223.849579 528.578247 L 224.445038 528.578247 L 225.040512 528.578247 L 225.635971 528.578247 L 226.231445 528.578247 L 226.826904 528.578247 L 227.422363 528.578247 L 228.017838 482.758331 L 228.613297 528.578247 L 229.208771 160.727783 L 229.804230 528.578247 L 230.399704 528.578247 L 230.995163 135.678116 L 231.590622 528.578247 L 232.186096 528.578247 L 232.781555 528.578247 L 233.377029 528.578247 L 233.972488 528.578247 L 234.567963 528.578247 L 235.163422 528.578247 L 235.758881 528.578247 L 236.354355 161.539413 L 236.949814 528.578247 L 237.545288 159.953049 L 238.140747 160.248184 L 238.736221 528.578247 L 239.331680 528.578247 L 239.927139 528.578247 L 240.522614 528.578247 L 241.118073 528.578247 L 241.713547 528.578247 L 242.309006 163.679169 L 242.904480 528.578247 L 243.499939 528.578247 L 244.095398 528.578247 L 244.690872 528.578247 L 245.286331 528.578247 L 245.881805 528.578247 L 246.477264 528.578247 L 247.072739 528.578247 L 247.668198 528.578247 L 248.263672 528.578247 L 248.859131 160.026825 L 249.454590 528.578247 L 250.050064 528.578247 L 250.645523 528.578247 L 251.240997 528.578247 L 251.836456 528.578247 L 252.431931 170.836212 L 253.027390 528.578247 L 253.622849 528.578247 L 254.218323 528.578247 L 254.813782 528.578247 L 255.409256 528.578247 L 256.004730 528.578247 L 256.600189 528.578247 L 257.195648 528.578247 L 257.791107 528.578247 L 258.386566 159.030777 L 258.982056 528.578247 L 259.577515 528.578247 L 260.172974 528.578247 L 260.768433 528.578247 L 261.363892 528.578247 L 261.959381 528.578247 L 262.554840 528.578247 L 263.150299 528.578247 L 263.745758 528.578247 L 264.341248 528.578247 L 264.936707 161.908340 L 265.532166 528.578247 L 266.127625 528.578247 L 266.723083 150.287338 L 267.318573 528.578247 L 267.914032 528.578247 L 268.509491 161.982117 L 269.104950 528.578247 L 269.700409 528.578247 L 270.295898 528.578247 L 270.891357 528.578247 L 271.486816 528.578247 L 272.082275 528.578247 L 272.677765 528.578247 L 273.273224 528.578247 L 273.868683 528.578247 L 274.464142 528.578247 L 275.059601 528.578247 L 275.655090 528.578247 L 276.250549 528.578247 L 276.846008 528.578247 L 277.441467 528.578247 L 278.036926 528.578247 L 278.632416 528.578247 L 279.227875 528.578247 L 279.823334 160.727783 L 280.418793 528.578247 L 281.014282 528.578247 L 281.609741 528.578247 L 282.205200 114.502060 L 282.800659 528.578247 L 283.396118 528.578247 L 283.991608 528.578247 L 284.587067 528.578247 L 285.182526 528.578247 L 285.777985 528.578247 L 286.373474 161.022919 L 286.968933 528.578247 L 287.564392 528.578247 L 288.159851 528.578247 L 288.755310 528.578247 L 289.350800 528.578247 L 289.946259 528.578247 L 290.541718 528.578247 L 291.137177 528.578247 L 291.732635 528.578247 L 292.328125 528.578247 L 292.923584 528.578247 L 293.519043 160.875351 L 294.114502 528.578247 L 294.709991 528.578247 L 295.305450 528.578247 L 295.900909 528.578247 L 296.496368 528.578247 L 297.091827 161.281158 L 297.687317 528.578247 L 298.282776 528.578247 L 298.878235 159.362762 L 299.473694 528.578247 L 300.069153 528.578247 L 300.664642 528.578247 L 301.260101 528.578247 L 301.855560 528.578247 L 302.451019 528.578247 L 303.046509 159.731689 L 303.641968 528.578247 L 304.237427 528.578247 L 304.832886 528.578247 L 305.428345 528.578247 L 306.023834 528.578247 L 306.619293 528.578247 L 307.214752 528.578247 L 307.810211 528.578247 L 308.405670 528.578247 L 309.001160 528.578247 L 309.596619 528.578247 L 310.192078 528.578247 L 310.787537 528.578247 L 311.383026 528.578247 L 311.978485 122.360077 L 312.573944 528.578247 L 313.169403 528.578247 L 313.764862 528.578247 L 314.360352 528.578247 L 314.955811 528.578247 L 315.551270 528.578247 L 316.146729 528.578247 L 316.742188 528.578247 L 317.337677 528.578247 L 317.933136 528.578247 L 318.528595 528.578247 L 319.124054 528.578247 L 319.719543 528.578247 L 320.315002 496.519073 L 320.910461 528.578247 L 321.505920 156.891022 L 322.101379 528.578247 L 322.696869 528.578247 L 323.292328 528.578247 L 323.887787 528.578247 L 324.483246 160.617096 L 325.078705 528.578247 L 325.674194 528.578247 L 326.269653 528.578247 L 326.865112 528.578247 L 327.460571 528.578247 L 328.056061 528.578247 L 328.651520 528.578247 L 329.246979 528.578247 L 329.842438 528.578247 L 330.437897 528.578247 L 331.033386 528.578247 L 331.628845 528.578247 L 332.224304 528.578247 L 332.819763 528.578247 L 333.415222 528.578247 L 334.010712 528.578247 L 334.606171 528.578247 L 335.201630 528.578247 L 335.797089 528.578247 L 336.392578 528.578247 L 336.988037 528.578247 L 337.583496 528.578247 L 338.178955 528.578247 L 338.774414 528.578247 L 339.369904 160.285065 L 339.965363 528.578247 L 340.560822 528.578247 L 341.156281 528.578247 L 341.751740 161.318054 L 342.347229 528.578247 L 342.942688 528.578247 L 343.538147 528.578247 L 344.133606 528.578247 L 344.729095 528.578247 L 345.324554 528.578247 L 345.920013 528.578247 L 346.515472 528.578247 L 347.110931 528.578247 L 347.706421 528.578247 L 348.301880 528.578247 L 348.897339 148.590302 L 349.492798 528.578247 L 350.088257 528.578247 L 350.683746 528.578247 L 351.279205 528.578247 L 351.874664 528.578247 L 352.470123 528.578247 L 353.065613 528.578247 L 353.661072 528.578247 L 354.256531 528.578247 L 354.851990 528.578247 L 355.447449 528.578247 L 356.042938 528.578247 L 356.638397 528.578247 L 357.233856 528.578247 L 357.829315 528.578247 L 358.424774 528.578247 L 359.020264 528.578247 L 359.615723 528.578247 L 360.211182 528.578247 L 360.806641 528.578247 L 361.402130 528.578247 L 361.997589 528.578247 L 362.593048 528.578247 L 363.188507 528.578247 L 363.783966 528.578247 L 364.379456 528.578247 L 364.974915 528.578247 L 365.570374 167.147003 L 366.165833 528.578247 L 366.761322 528.578247 L 367.356781 528.578247 L 367.952240 528.578247 L 368.547699 528.578247 L 369.143158 528.578247 L 369.738647 528.578247 L 370.334106 528.578247 L 370.929565 528.578247 L 371.525024 528.578247 L 372.120483 528.578247 L 372.715973 528.578247 L 373.311432 528.578247 L 373.906891 528.578247 L 374.502350 528.578247 L 375.097839 160.949127 L 375.693298 528.578247 L 376.288757 528.578247 L 376.884216 528.578247 L 377.479675 528.578247 L 378.075165 528.578247 L 378.670624 528.578247 L 379.266083 528.578247 L 379.861542 528.578247 L 380.457001 528.578247 L 381.052490 528.578247 L 381.647949 528.578247 L 382.243408 528.578247 L 382.838867 528.578247 L 383.434357 528.578247 L 384.029816 163.162674 L 384.625275 528.578247 L 385.220734 528.578247 L 385.816193 528.578247 L 386.411652 528.578247 L 387.007111 528.578247 L 387.602570 528.578247 L 388.198059 528.578247 L 388.793518 528.578247 L 389.388977 528.578247 L 389.984436 528.578247 L 390.579926 528.578247 L 391.175385 528.578247 L 391.770844 528.578247 L 392.366302 528.578247 L 392.961761 528.578247 L 393.557251 528.578247 L 394.152710 528.578247 L 394.748169 160.321960 L 395.343628 528.578247 L 395.939087 159.879257 L 396.534576 528.578247 L 397.130035 131.140366 L 397.725494 528.578247 L 398.320953 528.578247 L 398.916443 528.578247 L 399.511902 528.578247 L 400.107361 528.578247 L 400.702820 528.578247 L 401.298279 528.578247 L 401.893768 528.578247 L 402.489227 528.578247 L 403.084686 528.578247 L 403.680145 528.578247 L 404.275604 528.578247 L 404.871094 528.578247 L 405.466553 528.578247 L 406.062012 528.578247 L 406.657471 528.578247 L 407.252960 528.578247 L 407.848419 528.578247 L 408.443878 160.174393 L 409.039337 528.578247 L 409.634796 162.756851 L 410.230286 528.578247 L 410.825745 528.578247 L 411.421204 528.578247 L 412.016663 458.889160 L 412.612122 528.578247 L 413.207611 160.949127 L 413.803070 500.282043 L 414.398529 528.578247 L 414.993988 528.578247 L 415.589478 528.578247 L 416.184937 528.578247 L 416.780396 528.578247 L 417.375854 528.578247 L 417.971313 528.578247 L 418.566803 161.096710 L 419.162262 528.578247 L 419.757721 528.578247 L 420.353180 528.578247 L 420.948639 528.578247 L 421.544128 528.578247 L 422.139587 162.756851 L 422.735046 528.578247 L 423.330505 528.578247 L 423.925995 528.578247 L 424.521454 528.578247 L 425.116913 528.578247 L 425.712372 528.578247 L 426.307831 528.578247 L 426.903320 528.578247 L 427.498779 528.578247 L 428.094238 161.059814 L 428.689697 528.578247 L 429.285156 528.578247 L 429.880646 167.811066 L 430.476105 528.578247 L 431.071564 528.578247 L 431.667023 528.578247 L 432.262512 528.578247 L 432.857971 528.578247 L 433.453430 161.059814 L 434.048889 528.578247 L 434.644348 528.578247 L 435.239838 528.578247 L 435.835297 528.578247 L 436.430756 528.578247 L 437.026215 528.578247 L 437.621674 164.896561 L 438.217163 528.578247 L 438.812622 528.578247 L 439.408081 528.578247 L 440.003540 528.578247 L 440.599030 528.578247 L 441.194489 528.578247 L 441.789948 528.578247 L 442.385406 528.578247 L 442.980865 528.578247 L 443.576355 528.578247 L 444.171814 528.578247 L 444.767273 528.578247 L 445.362732 528.578247 L 445.958191 528.578247 L 446.553680 528.578247 L 447.149139 528.578247 L 447.744598 143.425415 L 448.340057 528.578247 L 448.935547 108.894470 L 449.531006 528.578247 L 450.126465 528.578247 L 450.721924 162.609283 L 451.317383 528.578247 L 451.912872 528.578247 L 452.508331 528.578247 L 453.103790 528.578247 L 453.699249 172.127411 L 454.294708 528.578247 L 454.890198 528.578247 L 455.485657 528.578247 L 456.081116 528.578247 L 456.676575 528.578247 L 457.272064 161.982117 L 457.867523 172.680801 L 458.462982 189.208435 L 459.058441 528.578247 L 459.653900 161.244278 L 460.249390 528.578247 L 460.844849 528.578247 L 461.440308 528.578247 L 462.035767 528.578247 L 462.631256 528.578247 L 463.226715 528.578247 L 463.822174 528.578247 L 464.417633 528.578247 L 465.013092 378.575226 L 465.608582 528.578247 L 466.204041 528.578247 L 466.799500 528.578247 L 467.394958 528.578247 L 467.990417 528.578247 L 468.585907 528.578247 L 469.181366 160.838455 L 469.776825 528.578247 L 470.372284 528.578247 L 470.967773 528.578247 L 471.563232 528.578247 L 472.158691 160.432648 L 472.754150 528.578247 L 473.349609 528.578247 L 473.945099 528.578247 L 474.540558 528.578247 L 475.136017 528.578247 L 475.731476 528.578247 L 476.326935 528.578247 L 476.922424 528.578247 L 477.517883 528.578247 L 478.113342 528.578247 L 478.708801 528.578247 L 479.304291 528.578247 L 479.899750 528.578247 L 480.495209 160.285065 L 481.090668 528.578247 L 481.686127 528.578247 L 482.281616 528.578247 L 482.877075 528.578247 L 483.472534 528.578247 L 484.067993 528.578247 L 484.663452 528.578247 L 485.258942 528.578247 L 485.854401 164.564575 L 486.449860 478.257507 L 487.045319 161.244278 L 487.640808 528.578247 L 488.236267 528.578247 L 488.831726 528.578247 L 489.427185 167.921738 L 490.022644 528.578247 L 490.618134 434.835602 L 491.213593 528.578247 L 491.809052 528.578247 L 492.404510 528.578247 L 492.999969 528.578247 L 493.595459 528.578247 L 494.190918 528.578247 L 494.786377 528.578247 L 495.381836 528.578247 L 495.977325 528.578247 L 496.572784 528.578247 L 497.168243 528.578247 L 497.763702 528.578247 L 498.359161 528.578247 L 498.954651 528.578247 L 499.550110 528.578247 L 500.145569 528.578247 L 500.741028 131.103470 L 501.336487 528.578247 L 501.931976 528.578247 L 502.527435 528.578247 L 503.122894 528.578247 L 503.718353 528.578247 L 504.313843 528.578247 L 504.909302 528.578247 L 505.504761 528.578247 L 506.100220 528.578247 L 506.695679 528.578247 L 507.291168 528.578247 L 507.886627 528.578247 L 508.482086 528.578247 L 509.077545 528.578247 L 509.673004 528.578247 L 510.268494 528.578247 L 510.863953 528.578247 L 511.459412 528.578247 L 512.054871 160.285065 L 512.650330 528.578247 L 513.245789 528.578247 L 513.841248 528.578247 L 514.436768 161.797653 L 515.032227 528.578247 L 515.627686 528.578247 L 516.223145 528.578247 L 516.818604 528.578247 L 517.414062 528.578247 L 518.009521 528.578247 L 518.604980 160.949127 L 519.200439 528.578247 L 519.795959 528.578247 L 520.391418 160.543320 L 520.986877 528.578247 L 521.582336 159.436554 L 522.177795 528.578247 L 522.773254 528.578247 L 523.368713 528.578247 L 523.964172 159.916153 L 524.559631 528.578247 L 525.155151 528.578247 L 525.750610 528.578247 L 526.346069 528.578247 L 526.941528 528.578247 L 527.536987 167.589706 L 528.132446 528.578247 L 528.727905 528.578247 L 529.323364 528.578247 L 529.918823 167.147003 L 530.514282 528.578247 L 531.109802 528.578247 L 531.705261 528.578247 L 532.300720 160.026825 L 532.896179 146.450577 L 533.491638 528.578247 L 534.087097 528.578247 L 534.682556 528.578247 L 535.278015 528.578247 L 535.873474 528.578247 L 536.468994 528.578247 L 537.064453 528.578247 L 537.659912 528.578247 L 538.255371 528.578247 L 538.850830 528.578247 L 539.446289 159.842361 L 540.041748 528.578247 L 540.637207 528.578247 L 541.232666 528.578247 L 541.828186 528.578247 L 542.423645 528.578247 L 543.019104 528.578247 L 543.614563 528.578247 L 544.210022 528.578247 L 544.805481 470.067444 L 545.400940 528.578247 L 545.996399 528.578247 L 546.591858 173.639999 L 547.187378 528.578247 L 547.782837 156.005600 L 548.378296 528.578247 L 548.973755 528.578247 L 549.569214 528.578247 L 550.164673 528.578247 L 550.760132 528.578247 L 551.355591 161.539413 L 551.951050 528.578247 L 552.546509 528.578247 L 553.142029 528.578247 L 553.737488 528.578247 L 554.332947 528.578247 L 554.928406 528.578247 L 555.523865 528.578247 L 556.119324 528.578247 L 556.714783 528.578247 L 557.310242 528.578247 L 557.905701 528.578247 L 558.501221 528.578247 L 559.096680 528.578247 L 559.692139 528.578247 L 560.287598 471.248016 L 560.883057 528.578247 L 561.478516 528.578247 L 562.073975 528.578247 L 562.669434 528.578247 L 563.264893 528.578247 L 563.860413 161.133591 L 564.455872 528.578247 L 565.051331 528.578247 L 565.646790 528.578247 L 566.242249 528.578247 L 566.837708 528.578247 L 567.433167 528.578247 L 568.028625 528.578247 L 568.624084 528.578247 L 569.219543 467.226776 L 569.815063 528.578247 L 570.410522 528.578247 L 571.005981 114.465164 L 571.601440 528.578247 L 572.196899 528.578247 L 572.792358 528.578247 L 573.387817 159.547226 L 573.983276 528.578247 L 574.578735 528.578247 L 575.174255 528.578247 L 575.769714 528.578247 L 576.365173 160.026825 L 576.960632 528.578247 L 577.556091 528.578247 L 578.151550 528.578247 L 578.747009 152.648453 L 579.342468 528.578247 L 579.937927 528.578247 L 580.533447 528.578247 L 581.128906 528.578247 L 581.724365 157.444412 L 582.319824 528.578247 L 582.915283 160.432648 L 583.510742 528.578247 L 584.106201 528.578247 L 584.701660 528.578247 L 585.297119 528.578247 L 585.892578 528.578247 L 586.488098 528.578247 L 587.083557 528.578247 L 587.679016 113.579788 L 588.274475 528.578247 L 588.869934 528.578247 L 589.465393 528.578247 L 590.060852 528.578247 L 590.656311 528.578247 L 591.251770 528.578247 L 591.847290 528.578247 L 592.442749 528.578247 L 593.038208 528.578247 L 593.633667 528.578247 L 594.229126 528.578247 L 594.824585 528.578247 L 595.420044 528.578247 L 596.015503 528.578247 L 596.610962 528.578247 L 597.206482 528.578247 L 597.801941 167.552811 L 598.397400 528.578247 L 598.992859 528.578247 L 599.588318 528.578247 L 600.183777 528.578247 L 600.779236 528.578247 L 601.374695 528.578247 L 601.970154 121.843582 L 602.565613 160.174393 L 603.161133 528.578247 L 603.756592 528.578247 L 604.352051 528.578247 L 604.947510 528.578247 L 605.542969 494.268646 L 606.138428 528.578247 L 606.733887 159.325867 L 607.329346 161.428741 L 607.924805 528.578247 L 608.520325 528.578247 L 609.115784 528.578247 L 609.711243 528.578247 L 610.306702 528.578247 L 610.902161 160.653992 L 611.497620 528.578247 L 612.093079 528.578247 L 612.688538 528.578247 L 613.283997 528.578247 L 613.879517 165.634415 L 614.474976 161.244278 L 615.070435 528.578247 L 615.665894 528.578247 L 616.261353 528.578247 L 616.856812 528.578247 L 617.452271 528.578247 L 618.047729 528.578247 L 618.643188 528.578247 L 619.238708 528.578247 L 619.834167 528.578247 L 620.429626 528.578247 L 621.025085 160.727783 L 621.620544 528.578247 L 622.216003 528.578247 L 622.811462 528.578247 L 623.406921 528.578247 L 624.002380 528.578247 L 624.597839 528.578247 L 625.193359 528.578247 L 625.788818 528.578247 L 626.384277 528.578247 L 626.979736 528.578247 L 627.575195 528.578247 L 628.170654 528.578247 L 628.766113 528.578247 L 629.361572 528.578247 L 629.957031 528.578247 L 630.552551 528.578247 L 631.148010 170.688644 L 631.743469 528.578247 L 632.338928 528.578247 L 632.934387 528.578247 L 633.529846 528.578247 L 634.125305 528.578247 L 634.720764 528.578247 L 635.316223 528.578247 L 635.911743 528.578247 L 636.507202 528.578247 L 637.102661 528.578247 L 637.698120 528.578247 L 638.293579 161.281158 L 638.889038 528.578247 L 639.484497 528.578247 L 640.079956 528.578247 L 640.675415 528.578247 L 641.270874 528.578247 L 641.866394 528.578247 L 642.461853 528.578247 L 643.057312 159.325867 L 643.652771 528.578247 L 644.248230 528.578247 L 644.843689 528.578247 L 645.439148 528.578247 L 646.034607 528.578247 L 646.630066 528.578247 L 647.225586 528.578247 L 647.821045 528.578247 L 648.416504 528.578247 L 649.011963 528.578247 L 649.607422 528.578247 L 650.202881 528.578247 L 650.798340 528.578247 L 651.393799 172.459442 L 651.989258 528.578247 L 652.584778 528.578247 L 653.180237 528.578247 L 653.775696 528.578247 L 654.371155 528.578247 L 654.966614 528.578247 L 655.562073 160.321960 L 656.157532 528.578247 L 656.752991 528.578247 L 657.348450 161.022919 L 657.943909 528.578247 L 658.539429 528.578247 L 659.134888 528.578247 L 659.730347 528.578247 L 660.325806 528.578247 L 660.921265 142.539993 L 661.516724 528.578247 L 662.112183 528.578247 L 662.707642 528.578247 L 663.303101 528.578247 L 663.898621 528.578247 L 664.494080 528.578247 L 665.089539 528.578247 L 665.684998 528.578247 L 666.280457 528.578247 L 666.875916 528.578247 L 667.471375 528.578247 L 668.066833 528.578247 L 668.662292 528.578247 L 669.257812 528.578247 L 669.853271 528.578247 L 670.448730 528.578247 L 671.044189 528.578247 L 671.639648 528.578247 L 672.235107 528.578247 L 672.830566 161.170486 L 673.426025 528.578247 L 674.021484 528.578247 L 674.616943 528.578247 L 675.212463 528.578247 L 675.807922 528.578247 L 676.403381 528.578247 L 676.998840 528.578247 L 677.594299 528.578247 L 678.189758 528.578247 L 678.785217 528.578247 L 679.380676 528.578247 L 679.976135 528.578247 L 680.571655 158.477386 L 681.167114 528.578247 L 681.762573 528.578247 L 682.358032 528.578247 L 682.953491 528.578247 L 683.548950 528.578247 L 684.144409 528.578247 L 684.739868 528.578247 L 685.335327 157.924011 L 685.930847 528.578247 L 686.526306 528.578247 L 687.121765 528.578247 L 687.717224 528.578247 L 688.312683 528.578247 L 688.908142 528.578247 L 689.503601 528.578247 L 690.099060 528.578247 L 690.694519 160.838455 L 691.290039 528.578247 L 691.885498 528.578247 L 692.480957 528.578247 L 693.076416 528.578247 L 693.671875 528.578247 L 694.267334 528.578247 L 694.862793 528.578247 L 695.458252 528.578247 L 696.053711 528.578247 L 696.649170 528.578247 L 697.244690 160.986023 L 697.840149 528.578247 L 698.435608 528.578247 L 699.031067 528.578247 L 699.626526 528.578247 L 700.221985 528.578247 L 700.817444 528.578247 L 701.412903 528.578247 L 702.008362 528.578247 L 702.603882 528.578247 L 703.199341 528.578247 L 703.794800 160.580215 L 704.390259 528.578247" stroke="#1f77b4" stroke-opacity="0.784314" stroke-width="3.000000" fill-opacity="0"/>
</svg>
